<?xml version="1.0" standalone="no"?>
<!DOCTYPE svg PUBLIC "-//W3C//DTD SVG 20010904//EN"
 "http://www.w3.org/TR/2001/REC-SVG-20010904/DTD/svg10.dtd">
<svg version="1.0" xmlns="http://www.w3.org/2000/svg"
 width="102.000000pt" height="154.000000pt" viewBox="0 0 102.000000 154.000000"
 preserveAspectRatio="xMidYMid meet">
<metadata>
Created by potrace 1.10, written by Peter Selinger 2001-2011
</metadata>
<g transform="translate(0.000000,154.000000) scale(0.050000,-0.050000)"
fill="#000000" stroke="none">
<path d="M650 2465 c-441 -157 -563 -870 -171 -995 30 -9 36 -26 29 -76 -19
-136 -68 -572 -68 -602 0 -24 21 -32 87 -32 l88 0 22 205 c13 113 29 261 36
330 11 112 17 125 57 125 282 0 494 359 351 594 -157 257 -547 104 -485 -190
17 -78 14 -77 110 -45 69 23 75 30 64 80 -31 141 136 158 181 19 85 -270 -412
-386 -505 -117 -163 472 469 771 835 396 148 -151 262 -463 222 -607 l-16 -60
-195 -6 c-107 -3 -192 -13 -188 -22 3 -9 69 -171 146 -359 l140 -343 95 0 c52
0 95 2 95 5 0 3 -49 122 -108 265 l-108 260 91 14 c419 63 223 900 -266 1136
-133 65 -394 77 -539 25z"/>
</g>
</svg>
